# xmcd
#
# Track frame offsets: 
#        150
#        21241
#        40569
#        61929
#        83207
#        105350
#        122038
#        145817
#        166664
#        185775
#        207227
#        229882
#
# Disc length: 3351 seconds
#
# Revision: 3
# Processed by: cddbd v1.5.2PL0 Copyright (c) Steve Scherf et al.
# Submitted via: ExactAudioCopy v0.99pb5
#
DISCID=990d150c
DTITLE=zhaopeng - The Ultimate Bass Vocal
DYEAR=2008
DGENRE=Pop
TTITLE0=殇
TTITLE1=山茶花
TTITLE2=中华民谣
TTITLE3=wulala
TTITLE4=情人的眼泪
TTITLE5=我的家乡
TTITLE6=明月千里寄相思
TTITLE7=知道不知道
TTITLE8=春花秋月
TTITLE9=蓝眼泪
TTITLE10=风和花的爱情
TTITLE11=把悲伤留给自己
EXTD=
EXTT0=
EXTT1=
EXTT2=
EXTT3=
EXTT4=
EXTT5=
EXTT6=
EXTT7=
EXTT8=
EXTT9=
EXTT10=
EXTT11=
PLAYORDER=
